# xmcd
#
# Track frame offsets:
#   150
#   20801
#   45222
#   67798
#   87628
#   109602
#   137985
#   159491
#   173690
#   197712
#   215700
#   235460
#   256132
#   280812
#   300596
#   322593
#
# Disc length: 4586 seconds
#
# Revision: 0
# Processed by: cddbd v1.5.2PL0 Copyright (c) Steve Scherf et al.
# Submitted via: uFREEDB ActiveX Control 1.5
#
DISCID=d711e810
DTITLE=Pr Gerson e Raquel - Além da Medicina
DYEAR=2010
DGENRE=Christian
TTITLE0=Em tua presença
TTITLE1=Além da medicina
TTITLE2=Barrabas
TTITLE3=Chame por ele
TTITLE4=Dia de Sol
TTITLE5=Espírito de Deus
TTITLE6=Quem é este
TTITLE7=Jesus de Nazaré
TTITLE8=Tome posse
TTITLE9=Aqui tem poder
TTITLE10=Deus de poder
TTITLE11=PB 12
TTITLE12=PB 13
TTITLE13=PB 14
TTITLE14=PB 15
TTITLE15=PB 16
EXTD=
EXTT0=
EXTT1=
EXTT2=
EXTT3=
EXTT4=
EXTT5=
EXTT6=
EXTT7=
EXTT8=
EXTT9=
EXTT10=
EXTT11=
EXTT12=
EXTT13=
EXTT14=
EXTT15=
PLAYORDER=
